<svg width="12" height="11" viewBox="0 0 12 11" fill="none" xmlns="http://www.w3.org/2000/svg">
<path fill-rule="evenodd" clip-rule="evenodd" d="M1.53657 8.55347C-0.401085 6.61582 -0.401085 3.47426 1.53657 1.53661C3.47422 -0.401039 6.61577 -0.401039 8.55342 1.53661C10.3245 3.30773 10.4768 6.0847 9.01009 8.02871L10.9678 9.98638C11.4784 10.4971 10.7124 11.2631 10.2017 10.7524L8.26746 8.81815C6.31807 10.4867 3.38156 10.3985 1.53657 8.55347ZM7.78739 2.30264C6.27281 0.788062 3.81718 0.788062 2.3026 2.30264C0.788016 3.81723 0.788016 6.27285 2.3026 7.78744C3.81718 9.30202 6.27281 9.30202 7.78739 7.78744C9.30197 6.27285 9.30197 3.81723 7.78739 2.30264Z" fill="#B3B3B3"/>
</svg>
