<svg width="34" height="34" viewBox="0 0 34 34" fill="none" xmlns="http://www.w3.org/2000/svg">
<path d="M15.4062 17C15.4062 17.4227 15.5741 17.8281 15.873 18.127C16.1719 18.4258 16.5773 18.5938 16.9999 18.5938C17.4226 18.5938 17.828 18.4258 18.1269 18.127C18.4258 17.8281 18.5937 17.4227 18.5937 17C18.5937 16.5773 18.4258 16.1719 18.1269 15.873C17.828 15.5742 17.4226 15.4062 16.9999 15.4062C16.5773 15.4062 16.1719 15.5742 15.873 15.873C15.5741 16.1719 15.4062 16.5773 15.4062 17ZM22.0468 17C22.0468 17.4227 22.2147 17.8281 22.5136 18.127C22.8125 18.4258 23.2179 18.5938 23.6406 18.5938C24.0633 18.5938 24.4686 18.4258 24.7675 18.127C25.0664 17.8281 25.2343 17.4227 25.2343 17C25.2343 16.5773 25.0664 16.1719 24.7675 15.873C24.4686 15.5742 24.0633 15.4062 23.6406 15.4062C23.2179 15.4062 22.8125 15.5742 22.5136 15.873C22.2147 16.1719 22.0468 16.5773 22.0468 17ZM8.76557 17C8.76557 17.4227 8.93348 17.8281 9.23237 18.127C9.53125 18.4258 9.93663 18.5938 10.3593 18.5938C10.782 18.5938 11.1874 18.4258 11.4863 18.127C11.7852 17.8281 11.9531 17.4227 11.9531 17C11.9531 16.5773 11.7852 16.1719 11.4863 15.873C11.1874 15.5742 10.782 15.4062 10.3593 15.4062C9.93663 15.4062 9.53125 15.5742 9.23237 15.873C8.93348 16.1719 8.76557 16.5773 8.76557 17ZM30.7195 11.2359C29.9691 9.45293 28.8933 7.85254 27.522 6.47793C26.1603 5.11128 24.5438 4.02496 22.764 3.28047C20.9378 2.51348 18.9988 2.125 16.9999 2.125H16.9335C14.9214 2.13496 12.9724 2.5334 11.1396 3.31699C9.37504 4.06911 7.77367 5.15737 6.42475 6.52109C5.06674 7.89238 4.00092 9.48613 3.26381 11.2625C2.50014 13.102 2.11498 15.0576 2.12494 17.0697C2.13621 19.3756 2.68173 21.6475 3.71869 23.707V28.7539C3.71869 29.159 3.87961 29.5475 4.16604 29.8339C4.45248 30.1203 4.84096 30.2812 5.24604 30.2812H10.2962C12.3558 31.3182 14.6277 31.8637 16.9335 31.875H17.0033C18.9921 31.875 20.9212 31.4898 22.7374 30.7361C24.5083 30.0005 26.1187 28.9269 27.4788 27.5752C28.8501 26.2172 29.9292 24.6301 30.683 22.8604C31.4665 21.0275 31.865 19.0785 31.8749 17.0664C31.8849 15.0443 31.4931 13.082 30.7195 11.2359ZM25.7025 25.7789C23.3749 28.0832 20.2871 29.3516 16.9999 29.3516H16.9435C14.9413 29.3416 12.9525 28.8436 11.196 27.9072L10.9171 27.7578H6.24213V23.0828L6.09272 22.8039C5.15639 21.0475 4.65834 19.0586 4.64838 17.0564C4.6351 13.7461 5.90014 10.6383 8.22104 8.29746C10.5386 5.95664 13.6365 4.66172 16.9468 4.64844H17.0033C18.6634 4.64844 20.2738 4.97051 21.7912 5.60801C23.272 6.22891 24.6001 7.12207 25.7423 8.26426C26.8812 9.40312 27.7777 10.7346 28.3986 12.2154C29.0427 13.7494 29.3648 15.3764 29.3581 17.0564C29.3382 20.3635 28.04 23.4613 25.7025 25.7789Z" fill="white"/>
</svg>
